<?xml version="1.0" encoding="utf-8"?>
<!-- Generator: Adobe Illustrator 23.0.3, SVG Export Plug-In . SVG Version: 6.00 Build 0)  -->
<svg version="1.1" xmlns="http://www.w3.org/2000/svg" xmlns:xlink="http://www.w3.org/1999/xlink" x="0px" y="0px"
	 viewBox="0 -9.304 395.285 63.431" enable-background="new 0 -9.304 395.285 63.431" xml:space="preserve">
<g id="Layer_1">
	<g>
		<g>
			<path d="M95.521,19.882c-0.72-1.097-1.705-1.99-2.932-2.656c-1.233-0.664-2.761-1.001-4.541-1.001
				c-2.361,0-4.501,0.717-6.36,2.131c-1.585,1.205-2.787,2.868-3.583,4.955c-0.179-0.721-0.409-1.406-0.686-2.048
				c-0.43-0.994-1.002-1.874-1.704-2.614c-0.708-0.747-1.593-1.344-2.633-1.776c-1.036-0.43-2.267-0.649-3.661-0.649
				c-1.087,0-2.159,0.177-3.189,0.526c-1.027,0.349-1.992,0.871-2.866,1.55c-0.869,0.676-1.66,1.507-2.353,2.469
				c-0.394,0.547-0.741,1.141-1.037,1.778c-0.001-0.008-0.001-0.015-0.001-0.023l-0.112-3.744c-0.021-0.572-0.049-1.049-0.087-1.431
				c-0.018-0.192-0.18-0.338-0.373-0.338h-1.238c-0.105,0-0.206,0.044-0.276,0.123c-0.072,0.078-0.107,0.183-0.096,0.288
				c0.035,0.373,0.073,0.838,0.111,1.396c0.037,0.558,0.064,1.145,0.083,1.759l0.057,1.83c0.019,0.596,0.028,1.098,0.028,1.508
				v19.36c0,0.207,0.168,0.375,0.375,0.375h1.238c0.207,0,0.375-0.168,0.375-0.375V30.333c0-1.939,0.25-3.689,0.742-5.203
				c0.489-1.505,1.168-2.799,2.017-3.848c0.842-1.039,1.841-1.848,2.968-2.404c1.125-0.553,2.348-0.833,3.634-0.833
				c1.455,0,2.664,0.311,3.592,0.923c0.94,0.622,1.687,1.403,2.216,2.322c0.538,0.931,0.912,1.987,1.109,3.141
				c0.203,1.184,0.305,2.298,0.305,3.313v15.532c0,0.207,0.168,0.375,0.375,0.375h1.237c0.207,0,0.375-0.168,0.375-0.375V30.333
				c0-1.938,0.26-3.688,0.769-5.197c0.509-1.51,1.198-2.806,2.045-3.854c0.842-1.04,1.841-1.848,2.971-2.404
				c1.125-0.553,2.348-0.833,3.632-0.833c1.458,0,2.677,0.311,3.623,0.924c0.961,0.624,1.735,1.407,2.299,2.33
				c0.569,0.934,0.976,1.991,1.211,3.144c0.234,1.172,0.355,2.282,0.355,3.302v15.531c0,0.207,0.167,0.375,0.372,0.375h1.23
				c0.206,0,0.373-0.168,0.373-0.375V27.632c0-1.371-0.153-2.742-0.458-4.08C96.747,22.201,96.231,20.966,95.521,19.882z"/>
		</g>
		<g>
			<path d="M108.482,17.013h-1.238c-0.207,0-0.375,0.168-0.375,0.375v25.889c0,0.207,0.168,0.375,0.375,0.375h1.238
				c0.207,0,0.375-0.168,0.375-0.375V17.388C108.857,17.181,108.689,17.013,108.482,17.013z"/>
		</g>
		<g>
			<path d="M106.697,4.911c-0.334,0.335-0.504,0.765-0.504,1.278c0,0.551,0.17,1,0.504,1.334c0.334,0.334,0.726,0.504,1.166,0.504
				c0.397,0,0.777-0.167,1.129-0.495c0.359-0.335,0.541-0.787,0.541-1.344c0-0.512-0.17-0.942-0.504-1.279
				C108.357,4.243,107.367,4.243,106.697,4.911z"/>
		</g>
		<g>
			<path d="M130.443,16.289c-0.215-0.042-0.406-0.063-0.576-0.063h-0.508c-1.984,0-3.857,0.62-5.565,1.843
				c-1.33,0.953-2.389,2.388-3.154,4.279l-0.106-3.565c-0.021-0.572-0.049-1.049-0.086-1.431c-0.021-0.192-0.183-0.338-0.373-0.338
				h-1.237c-0.105,0-0.205,0.044-0.277,0.123c-0.07,0.078-0.105,0.183-0.096,0.288c0.034,0.373,0.073,0.838,0.11,1.396
				c0.037,0.558,0.063,1.145,0.084,1.759l0.058,1.83c0.018,0.596,0.026,1.098,0.026,1.508v19.359c0,0.207,0.168,0.375,0.375,0.375
				h1.238c0.207,0,0.375-0.168,0.375-0.375V29.884c0-1.395,0.176-2.812,0.522-4.217c0.346-1.4,0.889-2.689,1.613-3.829
				c0.717-1.129,1.643-2.056,2.754-2.754c1.096-0.69,2.447-1.04,4.019-1.04h0.312c0.099,0,0.209,0.015,0.332,0.045
				c0.108,0.027,0.23,0.002,0.32-0.069c0.092-0.071,0.145-0.18,0.145-0.295v-1.069C130.748,16.478,130.621,16.322,130.443,16.289z"
				/>
		</g>
		<g>
			<path d="M156.074,20.162c-1.232-1.231-2.723-2.205-4.43-2.896c-1.707-0.69-3.6-1.04-5.627-1.04c-2.029,0-3.912,0.35-5.603,1.041
				c-1.688,0.691-3.168,1.665-4.399,2.896c-1.23,1.232-2.197,2.724-2.869,4.436c-0.67,1.705-1.01,3.617-1.01,5.68
				c0,2.062,0.34,3.982,1.01,5.707c0.672,1.73,1.637,3.24,2.867,4.488c1.231,1.252,2.713,2.236,4.401,2.927
				c1.69,0.69,3.574,1.041,5.603,1.041c2.027,0,3.92-0.351,5.627-1.04c1.709-0.691,3.199-1.676,4.432-2.928
				c1.23-1.248,2.195-2.758,2.869-4.488c0.67-1.725,1.01-3.645,1.01-5.707c0-2.063-0.34-3.975-1.012-5.68
				C158.271,22.885,157.305,21.395,156.074,20.162z M146.018,42.621c-1.853,0-3.523-0.33-4.967-0.98
				c-1.449-0.65-2.705-1.541-3.734-2.643c-1.031-1.104-1.828-2.414-2.371-3.896c-0.545-1.489-0.82-3.112-0.82-4.823
				c0-1.673,0.275-3.276,0.82-4.769c0.543-1.483,1.34-2.794,2.371-3.897c1.029-1.102,2.283-1.981,3.73-2.613
				c1.444-0.633,3.116-0.954,4.971-0.954c1.852,0,3.535,0.321,5,0.954c1.465,0.633,2.729,1.512,3.758,2.613
				c1.029,1.103,1.828,2.414,2.369,3.897c0.547,1.492,0.822,3.098,0.822,4.769c0,1.709-0.275,3.332-0.822,4.823
				c-0.541,1.482-1.338,2.794-2.369,3.896c-1.029,1.102-2.295,1.99-3.762,2.643C149.549,42.291,147.869,42.621,146.018,42.621z"/>
		</g>
		<g>
			<path d="M182.055,33.417c-0.459-0.834-1.084-1.539-1.855-2.094c-0.754-0.542-1.637-1.003-2.621-1.37
				c-0.965-0.358-1.971-0.675-2.996-0.942c-1.068-0.256-2.064-0.527-2.961-0.809c-0.865-0.271-1.609-0.606-2.215-0.998
				c-0.58-0.375-1.039-0.877-1.363-1.492c-0.326-0.617-0.49-1.468-0.49-2.527c0-0.939,0.199-1.745,0.595-2.395
				c0.397-0.661,0.907-1.198,1.516-1.597c0.617-0.405,1.308-0.7,2.05-0.877c0.754-0.18,1.481-0.271,2.164-0.271
				c1.471,0,2.737,0.261,3.77,0.776c1.033,0.516,1.975,1.323,2.797,2.397c0.115,0.15,0.324,0.189,0.486,0.097l1.067-0.619
				c0.093-0.053,0.156-0.141,0.181-0.244c0.02-0.103,0-0.21-0.062-0.296c-1.83-2.608-4.602-3.93-8.24-3.93
				c-1.008,0-2.02,0.148-3.004,0.438c-0.993,0.292-1.896,0.728-2.676,1.294c-0.791,0.574-1.435,1.307-1.91,2.178
				c-0.48,0.878-0.721,1.923-0.721,3.106c0,1.18,0.191,2.18,0.569,2.975c0.377,0.797,0.904,1.476,1.564,2.017
				c0.648,0.53,1.412,0.967,2.27,1.297c0.834,0.324,1.734,0.621,2.687,0.886c0.858,0.225,1.785,0.479,2.776,0.758
				c0.966,0.273,1.855,0.633,2.652,1.065c0.771,0.422,1.422,0.991,1.93,1.69c0.494,0.685,0.744,1.595,0.744,2.707
				c0,0.945-0.201,1.793-0.6,2.521c-0.404,0.736-0.938,1.359-1.586,1.852c-0.658,0.496-1.395,0.875-2.193,1.121
				c-0.803,0.25-1.606,0.377-2.393,0.377c-3.383,0-6.006-1.271-7.797-3.781c-0.117-0.166-0.348-0.204-0.514-0.094l-1.015,0.676
				c-0.084,0.056-0.144,0.144-0.162,0.244c-0.018,0.1,0.007,0.201,0.064,0.285c1.048,1.471,2.394,2.603,4.003,3.357
				c1.6,0.751,3.403,1.133,5.362,1.133c1.197,0,2.336-0.178,3.385-0.525c1.054-0.352,1.992-0.867,2.794-1.53
				c0.807-0.671,1.454-1.496,1.926-2.459c0.474-0.966,0.713-2.072,0.713-3.288C182.746,35.302,182.514,34.259,182.055,33.417z"/>
		</g>
	</g>
	<g>
		<path d="M189.832,30.067c-0.274-0.257-0.412-0.586-0.412-0.99c0-0.44,0.138-0.798,0.412-1.072
			c0.275-0.275,0.651-0.413,1.128-0.413h12.485c0.476,0,0.853,0.138,1.127,0.413c0.275,0.274,0.413,0.632,0.413,1.072
			c0,0.404-0.138,0.733-0.413,0.99c-0.274,0.257-0.651,0.385-1.127,0.385H190.96C190.484,30.452,190.108,30.324,189.832,30.067z"/>
		<path d="M226.545,16.701c0.293,0.22,0.439,0.587,0.439,1.1c0,0.917-0.55,1.43-1.649,1.54l-1.65,0.165
			c-2.604,0.257-4.537,1.192-5.803,2.805c-1.265,1.614-1.897,3.502-1.897,5.666v14.244c0,0.551-0.146,0.973-0.439,1.266
			c-0.294,0.293-0.697,0.439-1.21,0.439c-0.515,0-0.927-0.146-1.238-0.439s-0.467-0.715-0.467-1.266v-24.09
			c0-0.55,0.155-0.971,0.467-1.265c0.312-0.293,0.724-0.44,1.238-0.44c0.476,0,0.86,0.147,1.154,0.44
			c0.293,0.294,0.44,0.697,0.44,1.21v3.575c1.503-3.153,4.29-4.876,8.359-5.17l0.771-0.055
			C225.756,16.39,226.251,16.481,226.545,16.701z"/>
		<path d="M248.243,18.846c1.595,1.687,2.393,4.235,2.393,7.646v15.675c0,0.514-0.146,0.927-0.44,1.237
			c-0.293,0.312-0.696,0.468-1.21,0.468s-0.917-0.156-1.21-0.468c-0.294-0.311-0.439-0.724-0.439-1.237v-3.3
			c-0.771,1.65-1.889,2.925-3.355,3.822c-1.467,0.899-3.153,1.348-5.06,1.348c-1.724,0-3.3-0.349-4.73-1.045
			c-1.43-0.696-2.558-1.668-3.382-2.915c-0.825-1.246-1.238-2.621-1.238-4.125c0-1.98,0.514-3.521,1.54-4.62
			s2.731-1.888,5.115-2.365c2.383-0.476,5.701-0.715,9.955-0.715h1.155v-2.035c0-2.42-0.495-4.188-1.485-5.308
			c-0.99-1.118-2.549-1.677-4.675-1.677c-2.714,0-5.299,0.715-7.755,2.145c-0.11,0.074-0.395,0.266-0.853,0.578
			c-0.459,0.312-0.853,0.467-1.183,0.467c-0.367,0-0.669-0.138-0.907-0.413c-0.239-0.275-0.357-0.613-0.357-1.018
			c0-0.806,0.641-1.595,1.925-2.365c1.283-0.733,2.713-1.301,4.29-1.705c1.576-0.403,3.135-0.605,4.675-0.605
			C244.237,16.316,246.648,17.16,248.243,18.846z M245.053,38.702c1.521-1.613,2.282-3.666,2.282-6.16v-1.814h-1.045
			c-3.521,0-6.215,0.146-8.085,0.439c-1.87,0.294-3.19,0.798-3.96,1.513c-0.771,0.715-1.155,1.751-1.155,3.107
			c0,1.54,0.586,2.814,1.76,3.822c1.173,1.009,2.621,1.513,4.345,1.513C241.579,41.122,243.531,40.316,245.053,38.702z"/>
		<path d="M280.939,26.657v15.564c0,0.515-0.146,0.927-0.439,1.238c-0.294,0.311-0.697,0.467-1.21,0.467
			c-0.515,0-0.927-0.156-1.238-0.467c-0.312-0.312-0.467-0.724-0.467-1.238V26.876c0-2.64-0.532-4.565-1.596-5.775
			s-2.75-1.815-5.06-1.815c-2.64,0-4.758,0.807-6.353,2.42c-1.595,1.614-2.393,3.777-2.393,6.49v14.024
			c0,0.515-0.146,0.927-0.439,1.238c-0.294,0.311-0.697,0.467-1.21,0.467c-0.515,0-0.927-0.156-1.238-0.467
			c-0.312-0.312-0.467-0.724-0.467-1.238v-24.09c0-0.513,0.155-0.925,0.467-1.237c0.312-0.311,0.724-0.468,1.238-0.468
			c0.476,0,0.86,0.147,1.154,0.44c0.293,0.294,0.44,0.697,0.44,1.21v3.465c0.843-1.686,2.062-2.979,3.657-3.877
			c1.595-0.898,3.438-1.348,5.527-1.348C277.73,16.316,280.939,19.763,280.939,26.657z"/>
		<path d="M311.381,5.069c0.312,0.312,0.468,0.725,0.468,1.237v35.86c0,0.514-0.156,0.927-0.468,1.237
			c-0.312,0.312-0.725,0.468-1.237,0.468c-0.514,0-0.917-0.156-1.21-0.468c-0.294-0.311-0.44-0.724-0.44-1.237v-3.63
			c-0.807,1.797-1.999,3.162-3.575,4.098c-1.576,0.935-3.446,1.402-5.609,1.402c-2.347,0-4.419-0.577-6.215-1.732
			c-1.797-1.155-3.19-2.786-4.181-4.896c-0.989-2.107-1.484-4.555-1.484-7.342c0-2.75,0.495-5.161,1.484-7.233
			c0.99-2.071,2.384-3.676,4.181-4.812c1.796-1.136,3.868-1.705,6.215-1.705c2.163,0,4.033,0.467,5.609,1.402
			s2.769,2.302,3.575,4.098V6.306c0-0.513,0.146-0.925,0.44-1.237c0.293-0.311,0.696-0.467,1.21-0.467
			C310.657,4.602,311.07,4.758,311.381,5.069z M306.211,38.234c1.521-1.888,2.282-4.573,2.282-8.058
			c0-3.482-0.752-6.178-2.255-8.085c-1.504-1.906-3.648-2.86-6.435-2.86c-2.824,0-5.005,0.944-6.545,2.833
			c-1.54,1.889-2.311,4.557-2.311,8.003c0,3.483,0.771,6.188,2.311,8.112s3.703,2.888,6.489,2.888S304.689,40.123,306.211,38.234z"
			/>
		<path d="M324.251,42.332c-1.853-1.136-3.292-2.75-4.317-4.84c-1.027-2.09-1.54-4.528-1.54-7.315c0-2.786,0.513-5.225,1.54-7.315
			c1.025-2.09,2.465-3.703,4.317-4.84c1.851-1.136,4.005-1.705,6.462-1.705c2.42,0,4.565,0.569,6.436,1.705
			c1.87,1.137,3.309,2.75,4.317,4.84c1.008,2.09,1.513,4.529,1.513,7.315c0,2.787-0.505,5.226-1.513,7.315
			c-1.009,2.09-2.447,3.704-4.317,4.84c-1.87,1.137-4.016,1.705-6.436,1.705C328.256,44.037,326.102,43.468,324.251,42.332z
			 M337.204,38.261c1.54-1.869,2.311-4.564,2.311-8.085c0-3.445-0.78-6.132-2.338-8.058c-1.559-1.925-3.713-2.887-6.463-2.887
			c-2.786,0-4.949,0.962-6.489,2.887c-1.54,1.925-2.311,4.612-2.311,8.058c0,3.521,0.751,6.216,2.255,8.085
			c1.503,1.87,3.666,2.806,6.49,2.806C333.482,41.067,335.664,40.131,337.204,38.261z"/>
		<path d="M387.199,26.657v15.564c0,0.515-0.147,0.927-0.44,1.238c-0.294,0.311-0.696,0.467-1.21,0.467s-0.926-0.156-1.237-0.467
			c-0.312-0.312-0.468-0.724-0.468-1.238V26.876c0-2.676-0.477-4.611-1.43-5.803c-0.954-1.191-2.475-1.788-4.565-1.788
			c-2.384,0-4.281,0.807-5.692,2.42c-1.412,1.614-2.117,3.777-2.117,6.49v14.024c0,0.515-0.147,0.927-0.44,1.238
			c-0.294,0.311-0.696,0.467-1.21,0.467s-0.926-0.156-1.237-0.467c-0.312-0.312-0.468-0.724-0.468-1.238V26.876
			c0-2.676-0.477-4.611-1.43-5.803c-0.954-1.191-2.475-1.788-4.564-1.788c-2.385,0-4.282,0.807-5.693,2.42
			c-1.411,1.614-2.117,3.777-2.117,6.49v14.024c0,0.515-0.146,0.927-0.439,1.238c-0.294,0.311-0.697,0.467-1.21,0.467
			c-0.515,0-0.927-0.156-1.238-0.467c-0.312-0.312-0.467-0.724-0.467-1.238v-24.09c0-0.55,0.155-0.971,0.467-1.265
			c0.312-0.293,0.724-0.44,1.238-0.44c0.513,0,0.907,0.147,1.182,0.44c0.275,0.294,0.413,0.697,0.413,1.21v3.3
			c0.77-1.65,1.878-2.906,3.327-3.768c1.448-0.861,3.126-1.292,5.032-1.292c4.217,0,6.948,1.76,8.195,5.28
			c0.771-1.65,1.943-2.942,3.521-3.877c1.576-0.935,3.391-1.402,5.444-1.402C384.247,16.316,387.199,19.763,387.199,26.657z"/>
	</g>
</g>
<g id="Layer_2">
	<path fill-rule="evenodd" clip-rule="evenodd" fill="#FFFFFF" d="M49.031,24.591c0-3.729-10.508-6.749-23.475-6.749
		c-12.965,0-23.473,3.021-23.473,6.749c0,0.007,0.002,0.013,0.002,0.019H2.084c0.002,0.013,0.004,0.024,0.005,0.036
		c0.004,0.134,0.023,0.267,0.054,0.399c0.578,4.937,2.291,8.767,4.727,11.809c3.959,4.95,10.543,8.784,19.594,8.444
		c8.195-0.307,14.5-4.066,18.369-9.591c1.922-2.742,3.404-6.031,3.988-10l-0.113-0.002C48.917,25.342,49.031,24.971,49.031,24.591z"
		/>
	<g>
		<g>
			<path fill-rule="evenodd" clip-rule="evenodd" fill="none" stroke="#000000" stroke-width="1.4" stroke-miterlimit="10" d="
				M48.926,25.949c-0.584,3.969-2.066,7.258-3.988,10c-3.869,5.524-10.174,9.284-18.369,9.591
				c-9.051,0.34-15.635-3.494-19.594-8.444c-2.508-3.133-4.26-7.09-4.785-12.243"/>
		</g>
	</g>
	<path fill-rule="evenodd" clip-rule="evenodd" fill="none" stroke="#000000" stroke-width="1.4" stroke-miterlimit="10" d="
		M49.137,24.833c0,3.727-10.508,6.748-23.475,6.748c-12.965,0-23.473-3.021-23.473-6.748c0-3.729,10.508-6.749,23.473-6.749
		C38.629,18.083,49.137,21.104,49.137,24.833z"/>
	<path fill-rule="evenodd" clip-rule="evenodd" fill="none" stroke="#000000" stroke-width="1.4" stroke-miterlimit="10" d="
		M44.393,24.411c0,2.323-8.381,4.205-18.729,4.205c-10.348,0-18.733-1.882-18.733-4.205c0-2.323,8.385-4.206,18.733-4.206
		C36.012,20.205,44.393,22.087,44.393,24.411z"/>
	<path fill-rule="evenodd" clip-rule="evenodd" fill="none" stroke="#000000" stroke-width="1.4" stroke-miterlimit="10" d="
		M39.418,24.303c0,1.028-6.152,1.863-13.748,1.863c-7.592,0-13.748-0.835-13.748-1.863c0-1.03,6.156-1.864,13.748-1.864
		C33.266,22.439,39.418,23.273,39.418,24.303z"/>
	<path fill-rule="evenodd" clip-rule="evenodd" fill="none" stroke="#000000" stroke-width="1.4" stroke-miterlimit="10" d="
		M6.932,24.411c0,0-0.381,0.63,0.795,4.774"/>
	
		<line fill-rule="evenodd" clip-rule="evenodd" fill="none" stroke="#000000" stroke-width="1.4" stroke-miterlimit="10" x1="11.915" y1="24.267" x2="12.428" y2="27.124"/>
	
		<line fill-rule="evenodd" clip-rule="evenodd" fill="none" stroke="#000000" stroke-width="1.4" stroke-miterlimit="10" x1="39.446" y1="24.411" x2="38.934" y2="27.267"/>
	<path fill-rule="evenodd" clip-rule="evenodd" fill="none" stroke="#000000" stroke-width="1.4" stroke-miterlimit="10" d="
		M44.295,24.411c0,0,0.381,0.63-0.795,4.774"/>
</g>
<g id="Layer_3">
	<g>
		<defs>
			<path id="SVGID_1_" d="M38.638-9.027c-5.424-0.025-17.946-0.252-23.371-0.278c-8.227-0.041-2.492,32.926-2.492,33.028
				c0,1.227,7.246,1.756,13.154,1.756c6.939,0,12.815-0.792,12.767-1.65C38.689,23.725,41.437-9.013,38.638-9.027z"/>
		</defs>
		<clipPath id="SVGID_2_">
			<use xlink:href="#SVGID_1_"  overflow="visible"/>
		</clipPath>
		<g clip-path="url(#SVGID_2_)">
			<g>
				<path fill="#FFFFFF" d="M19.271,25.609h-4c0-6.906,3.329-10.691,9.079-14.895c6.109-4.467,8.085-8.194,8.085-9.3h4
					c0,3.342-3.726,8.143-9.724,12.528C21.67,17.628,19.271,20.314,19.271,25.609z"/>
			</g>
			<g>
				<path d="M18.271,25.609h-2c0-6.514,3.047-9.977,8.669-14.088c6.232-4.557,8.495-8.541,8.495-10.107h2
					c0,2.983-3.656,7.584-9.314,11.721C20.915,16.942,18.271,19.917,18.271,25.609z"/>
			</g>
		</g>
		<path clip-path="url(#SVGID_2_)" d="M38.117,0.912l-3.282-4.387c-0.188-0.253-0.612-0.253-0.801,0l-3.282,4.387
			c-0.113,0.151-0.131,0.354-0.047,0.523c0.085,0.169,0.258,0.276,0.447,0.276h6.564c0.189,0,0.362-0.107,0.447-0.276
			C38.249,1.266,38.23,1.063,38.117,0.912z"/>
		<g clip-path="url(#SVGID_2_)">
			<g>
				<path fill="#FFFFFF" d="M35.484,25.609h-4c0-4.957-1.661-7.683-7.109-11.667c-5.998-4.385-9.724-9.186-9.724-12.528h4
					c0,1.105,1.976,4.833,8.085,9.3C32.276,14.765,35.484,18.501,35.484,25.609z"/>
			</g>
			<g>
				<path d="M34.484,25.609h-2c0-5.896-2.532-8.827-7.519-12.474c-5.658-4.137-9.314-8.738-9.314-11.721h2
					c0,1.566,2.262,5.55,8.495,10.107C31.553,15.475,34.484,18.892,34.484,25.609z"/>
			</g>
		</g>
		<path clip-path="url(#SVGID_2_)" d="M20.333,0.912l-3.282-4.387c-0.188-0.253-0.612-0.253-0.801,0l-3.282,4.387
			c-0.113,0.151-0.131,0.354-0.047,0.523c0.085,0.169,0.258,0.276,0.447,0.276h6.564c0.189,0,0.362-0.107,0.447-0.276
			C20.464,1.266,20.446,1.063,20.333,0.912z"/>
	</g>
</g>
</svg>
