<?xml version="1.0" encoding="UTF-8" standalone="no"?>
<!-- Generator: Adobe Illustrator 23.0.3, SVG Export Plug-In . SVG Version: 6.00 Build 0)  -->

<svg
   xmlns:dc="http://purl.org/dc/elements/1.1/"
   xmlns:cc="http://creativecommons.org/ns#"
   xmlns:rdf="http://www.w3.org/1999/02/22-rdf-syntax-ns#"
   xmlns:svg="http://www.w3.org/2000/svg"
   xmlns="http://www.w3.org/2000/svg"
   xmlns:xlink="http://www.w3.org/1999/xlink"
   xmlns:sodipodi="http://sodipodi.sourceforge.net/DTD/sodipodi-0.dtd"
   xmlns:inkscape="http://www.inkscape.org/namespaces/inkscape"
   version="1.1"
   x="0px"
   y="0px"
   viewBox="0 -9.304 48.347999 49.925607"
   enable-background="new 0 -9.304 395.285 63.431"
   xml:space="preserve"
   id="svg101"
   sodipodi:docname="miros_a.svg"
   inkscape:version="0.92.3 (2405546, 2018-03-11)"
   width="48.348"
   height="49.925606"><metadata
   id="metadata107"><rdf:RDF><cc:Work
       rdf:about=""><dc:format>image/svg+xml</dc:format><dc:type
         rdf:resource="http://purl.org/dc/dcmitype/StillImage" /><dc:title></dc:title></cc:Work></rdf:RDF></metadata><defs
   id="defs105" /><sodipodi:namedview
   pagecolor="#ffffff"
   bordercolor="#666666"
   borderopacity="1"
   objecttolerance="10"
   gridtolerance="10"
   guidetolerance="10"
   inkscape:pageopacity="0"
   inkscape:pageshadow="2"
   inkscape:window-width="640"
   inkscape:window-height="480"
   id="namedview103"
   showgrid="false"
   inkscape:zoom="4.1438455"
   inkscape:cx="155.97343"
   inkscape:cy="23.849354"
   inkscape:current-layer="svg101"
   fit-margin-top="0"
   fit-margin-left="0"
   fit-margin-right="0"
   fit-margin-bottom="0" />

<g
   id="Layer_2"
   transform="translate(-1.489,-5.63925)">
	<path
   d="m 49.031,24.591 c 0,-3.729 -10.508,-6.749 -23.475,-6.749 -12.965,0 -23.473,3.021 -23.473,6.749 0,0.007 0.002,0.013 0.002,0.019 H 2.084 c 0.002,0.013 0.004,0.024 0.005,0.036 0.004,0.134 0.023,0.267 0.054,0.399 0.578,4.937 2.291,8.767 4.727,11.809 3.959,4.95 10.543,8.784 19.594,8.444 8.195,-0.307 14.5,-4.066 18.369,-9.591 1.922,-2.742 3.404,-6.031 3.988,-10 l -0.113,-0.002 c 0.209,-0.363 0.323,-0.734 0.323,-1.114 z"
   id="path45"
   inkscape:connector-curvature="0"
   style="clip-rule:evenodd;fill:#ffffff;fill-rule:evenodd" />
	<g
   id="g51">
		<g
   id="g49">
			<path
   stroke-miterlimit="10"
   d="m 48.926,25.949 c -0.584,3.969 -2.066,7.258 -3.988,10 C 41.069,41.473 34.764,45.233 26.569,45.54 17.518,45.88 10.934,42.046 6.975,37.096 4.467,33.963 2.715,30.006 2.19,24.853"
   id="path47"
   inkscape:connector-curvature="0"
   style="clip-rule:evenodd;fill:none;fill-rule:evenodd;stroke:#000000;stroke-width:1.39999998;stroke-miterlimit:10" />
		</g>
	</g>
	<path
   stroke-miterlimit="10"
   d="m 49.137,24.833 c 0,3.727 -10.508,6.748 -23.475,6.748 -12.965,0 -23.473,-3.021 -23.473,-6.748 0,-3.729 10.508,-6.749 23.473,-6.749 12.967,-0.001 23.475,3.02 23.475,6.749 z"
   id="path53"
   inkscape:connector-curvature="0"
   style="clip-rule:evenodd;fill:none;fill-rule:evenodd;stroke:#000000;stroke-width:1.39999998;stroke-miterlimit:10" />
	<path
   stroke-miterlimit="10"
   d="m 44.393,24.411 c 0,2.323 -8.381,4.205 -18.729,4.205 -10.348,0 -18.733,-1.882 -18.733,-4.205 0,-2.323 8.385,-4.206 18.733,-4.206 10.348,0 18.729,1.882 18.729,4.206 z"
   id="path55"
   inkscape:connector-curvature="0"
   style="clip-rule:evenodd;fill:none;fill-rule:evenodd;stroke:#000000;stroke-width:1.39999998;stroke-miterlimit:10" />
	<path
   stroke-miterlimit="10"
   d="m 39.418,24.303 c 0,1.028 -6.152,1.863 -13.748,1.863 -7.592,0 -13.748,-0.835 -13.748,-1.863 0,-1.03 6.156,-1.864 13.748,-1.864 7.596,0 13.748,0.834 13.748,1.864 z"
   id="path57"
   inkscape:connector-curvature="0"
   style="clip-rule:evenodd;fill:none;fill-rule:evenodd;stroke:#000000;stroke-width:1.39999998;stroke-miterlimit:10" />
	<path
   stroke-miterlimit="10"
   d="m 6.932,24.411 c 0,0 -0.381,0.63 0.795,4.774"
   id="path59"
   inkscape:connector-curvature="0"
   style="clip-rule:evenodd;fill:none;fill-rule:evenodd;stroke:#000000;stroke-width:1.39999998;stroke-miterlimit:10" />
	
		<line
   stroke-miterlimit="10"
   x1="11.915"
   y1="24.267"
   x2="12.428"
   y2="27.124001"
   id="line61"
   style="clip-rule:evenodd;fill:none;fill-rule:evenodd;stroke:#000000;stroke-width:1.39999998;stroke-miterlimit:10" />
	
		<line
   stroke-miterlimit="10"
   x1="39.445999"
   y1="24.410999"
   x2="38.933998"
   y2="27.267"
   id="line63"
   style="clip-rule:evenodd;fill:none;fill-rule:evenodd;stroke:#000000;stroke-width:1.39999998;stroke-miterlimit:10" />
	<path
   stroke-miterlimit="10"
   d="m 44.295,24.411 c 0,0 0.381,0.63 -0.795,4.774"
   id="path65"
   inkscape:connector-curvature="0"
   style="clip-rule:evenodd;fill:none;fill-rule:evenodd;stroke:#000000;stroke-width:1.39999998;stroke-miterlimit:10" />
</g>
<g
   id="Layer_3"
   transform="translate(-1.489,-5.63925)">
	<g
   id="g98">
		<defs
   id="defs69">
			<path
   id="SVGID_1_"
   d="M 38.638,-9.027 C 33.214,-9.052 20.692,-9.279 15.267,-9.305 7.04,-9.346 12.775,23.621 12.775,23.723 c 0,1.227 7.246,1.756 13.154,1.756 6.939,0 12.815,-0.792 12.767,-1.65 -0.007,-0.104 2.741,-32.842 -0.058,-32.856 z"
   inkscape:connector-curvature="0" />
		</defs>
		<clipPath
   id="SVGID_2_">
			<use
   xlink:href="#SVGID_1_"
   overflow="visible"
   id="use71"
   style="overflow:visible"
   x="0"
   y="0"
   width="100%"
   height="100%" />
		</clipPath>
		<g
   clip-path="url(#SVGID_2_)"
   id="g82">
			<g
   id="g76">
				<path
   d="m 19.271,25.609 h -4 c 0,-6.906 3.329,-10.691 9.079,-14.895 6.109,-4.467 8.085,-8.194 8.085,-9.3 h 4 c 0,3.342 -3.726,8.143 -9.724,12.528 -5.041,3.686 -7.44,6.372 -7.44,11.667 z"
   id="path74"
   inkscape:connector-curvature="0"
   style="fill:#ffffff" />
			</g>
			<g
   id="g80">
				<path
   d="m 18.271,25.609 h -2 c 0,-6.514 3.047,-9.977 8.669,-14.088 6.232,-4.557 8.495,-8.541 8.495,-10.107 h 2 c 0,2.983 -3.656,7.584 -9.314,11.721 -5.206,3.807 -7.85,6.782 -7.85,12.474 z"
   id="path78"
   inkscape:connector-curvature="0" />
			</g>
		</g>
		<path
   clip-path="url(#SVGID_2_)"
   d="m 38.117,0.912 -3.282,-4.387 c -0.188,-0.253 -0.612,-0.253 -0.801,0 l -3.282,4.387 c -0.113,0.151 -0.131,0.354 -0.047,0.523 0.085,0.169 0.258,0.276 0.447,0.276 h 6.564 c 0.189,0 0.362,-0.107 0.447,-0.276 0.086,-0.169 0.067,-0.372 -0.046,-0.523 z"
   id="path84"
   inkscape:connector-curvature="0" />
		<g
   clip-path="url(#SVGID_2_)"
   id="g94">
			<g
   id="g88">
				<path
   d="m 35.484,25.609 h -4 c 0,-4.957 -1.661,-7.683 -7.109,-11.667 C 18.377,9.557 14.651,4.756 14.651,1.414 h 4 c 0,1.105 1.976,4.833 8.085,9.3 5.54,4.051 8.748,7.787 8.748,14.895 z"
   id="path86"
   inkscape:connector-curvature="0"
   style="fill:#ffffff" />
			</g>
			<g
   id="g92">
				<path
   d="m 34.484,25.609 h -2 c 0,-5.896 -2.532,-8.827 -7.519,-12.474 C 19.307,8.998 15.651,4.397 15.651,1.414 h 2 c 0,1.566 2.262,5.55 8.495,10.107 5.407,3.954 8.338,7.371 8.338,14.088 z"
   id="path90"
   inkscape:connector-curvature="0" />
			</g>
		</g>
		<path
   clip-path="url(#SVGID_2_)"
   d="m 20.333,0.912 -3.282,-4.387 c -0.188,-0.253 -0.612,-0.253 -0.801,0 l -3.282,4.387 c -0.113,0.151 -0.131,0.354 -0.047,0.523 0.085,0.169 0.258,0.276 0.447,0.276 h 6.564 c 0.189,0 0.362,-0.107 0.447,-0.276 0.085,-0.169 0.067,-0.372 -0.046,-0.523 z"
   id="path96"
   inkscape:connector-curvature="0" />
	</g>
</g>
</svg>